:SAMPLES-PER-SECOND 30
:FULLY-SPECIFIED
:DEGREES
324
root  -3.83521 40.9437 -1.27988 7.02563 -77.4553 -0.701782
RightUpLeg  -2.85675 -0.940027 0.261369
RightLeg  -6.84488 -34.7423 5.67335
RightFoot  2.39483 0.0479245 -0.261961
RightToes  -3.11842e-008 1.75238e-005 3.56266e-009
Spine  1.95968 -1.10283 -4.2122
Spine1  8.69945 -1.21492 0.627828
HEad  -3.7929 -0.4241 -2.01325
LeftShoulder1  1.94209 -4.90672 -16.3649
LeftArm  -57.0131 -28.8623 -15.5468
LeftForeArm  -48.6149 1.9557 10.1697
LeftHand  -0.0516017 4.45699 3.77159
RightShoulder  1.71275 4.2781 15.2599
RightArm  -53.6217 24.5264 8.66685
RightForeArm  -36.5126 13.902 0.326054
RightHand  -0.127759 1.51753 -2.29246
LeftUpLeg  -6.88534 0.462904 4.66545
LeftLeg  -3.91181 3.01981 -0.12385
LeftFoot  5.39262 0.636902 -4.55244
LeftToes  4.78904e-008 1.4679e-008 1.35657e-009
325
root  -3.93435 40.9496 -1.26496 5.93707 -77.6033 -0.396606
RightUpLeg  -1.88394 -0.925974 0.295773
RightLeg  -6.71436 -34.6316 5.36885
RightFoot  2.17528 0.0287604 -0.117194
RightToes  -3.11842e-008 1.75238e-005 3.56266e-009
Spine  1.1029 -1.06544 -3.22834
Spine1  9.06757 -0.811766 -0.703921
HEad  -3.64239 -0.637391 -0.885703
LeftShoulder1  1.82097 -4.67858 -15.4602
LeftArm  -57.2825 -30.8933 -15.2732
LeftForeArm  -45.9545 -1.69628 8.80112
LeftHand  -0.0467899 4.33336 2.67741
RightShoulder  1.67491 4.32016 14.5894
RightArm  -56.4172 27.0524 7.52635
RightForeArm  -32.8151 16.5894 1.9894
RightHand  -0.130823 1.63571 -2.30882
LeftUpLeg  -5.89877 0.55393 4.60544
LeftLeg  -3.73535 2.99471 -0.088245
LeftFoot  4.90298 0.667156 -4.88308
LeftToes  4.78904e-008 1.4679e-008 1.35657e-009
326
root  -4.05842 40.9512 -1.24383 5.13385 -77.4235 -0.210938
RightUpLeg  -0.914925 -1.01208 0.301464
RightLeg  -6.86803 -34.6943 5.36721
RightFoot  2.02609 0.00567437 0.069143
RightToes  -3.11842e-008 1.75238e-005 3.56266e-009
Spine  0.643948 -1.01472 -2.79523
Spine1  8.31059 -0.687086 -0.959912
HEad  -2.68698 -1.05229 0.0832303
LeftShoulder1  1.82504 -4.82293 -15.0878
LeftArm  -57.9488 -32.6815 -13.9439
LeftForeArm  -40.5351 -6.36714 6.96115
LeftHand  -0.0714199 3.25973 3.02873
RightShoulder  1.49672 3.91403 13.2347
RightArm  -58.7049 29.8406 6.63802
RightForeArm  -27.7222 20.1627 4.42703
RightHand  -0.173593 2.10841 -2.87416
LeftUpLeg  -5.2018 0.612031 4.56786
LeftLeg  -3.36957 2.70412 -0.00916601
LeftFoot  4.31432 0.700516 -5.28506
LeftToes  4.78904e-008 1.4679e-008 1.35657e-009
327
root  -4.21518 40.956 -1.23207 4.4964 -77.2021 -0.2099
RightUpLeg  0.121711 -1.01249 0.402141
RightLeg  -7.0449 -34.9005 5.34597
RightFoot  1.82583 0.000379154 0.105098
RightToes  -3.11842e-008 1.75238e-005 3.56266e-009
Spine  0.263335 -0.988586 -2.44355
Spine1  7.26131 -0.585835 -1.27724
HEad  -1.44273 -1.47899 1.08247
LeftShoulder1  1.76086 -4.6795 -14.6483
LeftArm  -60.013 -33.7956 -12.4607
LeftForeArm  -32.906 -13.5717 2.12527
LeftHand  -0.041887 3.16711 1.3431
RightShoulder  1.31971 3.4591 11.8833
RightArm  -57.5427 32.2265 5.88139
RightForeArm  -25.1531 25.5077 6.75235
RightHand  -0.188096 2.84601 -2.87429
LeftUpLeg  -4.31903 0.887131 4.66894
LeftLeg  -3.26213 2.16986 -0.0901205
LeftFoot  3.79294 0.719558 -5.5862
LeftToes  4.78904e-008 1.4679e-008 1.35657e-009
328
root  -4.38728 40.9562 -1.20533 3.77722 -76.9781 0.0593262
RightUpLeg  0.972014 -1.03903 0.427213
RightLeg  -7.15273 -35.0925 5.27491
RightFoot  1.63653 -0.0322098 0.381036
RightToes  -3.11842e-008 1.75238e-005 3.56266e-009
Spine  -0.29651 -0.907342 -2.00982
Spine1  6.3326 -0.364843 -1.87398
HEad  -0.39647 -2.42264 2.33827
LeftShoulder1  1.67325 -4.52065 -13.9233
LeftArm  -64.6202 -34.64 -11.4167
LeftForeArm  -22.7002 -23.1596 -5.33811
LeftHand  -0.037696 2.65562 1.03208
RightShoulder  1.20749 3.10039 11.1466
RightArm  -53.5756 33.9468 4.7224
RightForeArm  -24.8119 33.0308 8.58306
RightHand  -0.221854 3.51185 -3.12901
LeftUpLeg  -3.65564 0.987305 4.6341
LeftLeg  -3.03066 1.73076 -0.081736
LeftFoot  3.20879 0.698175 -5.62124
LeftToes  4.78904e-008 1.4679e-008 1.35657e-009
329
root  -4.58182 40.9599 -1.16742 3.44531 -76.7494 0.150818
RightUpLeg  1.70565 -1.13808 0.4117
RightLeg  -7.45794 -35.1961 5.4587
RightFoot  1.40981 -0.0425688 0.466645
RightToes  -3.11842e-008 1.75238e-005 3.56266e-009
Spine  -0.886408 -0.705026 -1.83529
Spine1  5.19132 -0.100454 -2.15429
HEad  0.389289 -3.5176 3.57654
LeftShoulder1  1.56745 -4.31631 -13.0159
LeftArm  -55.2183 -35.2601 -10.856
LeftForeArm  -23.5135 -34.9938 -9.21341
LeftHand  -0.00185592 1.60466 -0.190851
RightShoulder  1.13079 2.84922 10.5807
RightArm  -49.7096 34.212 3.56383
RightForeArm  -22.592 42.6795 11.6493
RightHand  -0.321768 4.70063 -3.99345
LeftUpLeg  -3.15231 1.08854 4.65069
LeftLeg  -2.85086 1.34224 -0.0630851
LeftFoot  2.53858 0.717259 -6.01744
LeftToes  4.78904e-008 1.4679e-008 1.35657e-009
330
root  -4.78712 40.9546 -1.12 3.04364 -76.6889 0.415955
RightUpLeg  2.26855 -1.18338 0.386489
RightLeg  -7.59145 -35.1978 5.46676
RightFoot  1.14866 -0.0510715 0.538112
RightToes  -3.11842e-008 1.75238e-005 3.56266e-009
Spine  -1.93689 -0.473851 -2.24066
Spine1  4.86265 0.0746566 -1.68676
HEad  0.732021 -4.38485 4.66635
LeftShoulder1  1.3596 -3.55571 -12.1685
LeftArm  -48.4704 -36.0215 -10.4623
LeftForeArm  -16.4959 -47.7636 -13.4094
LeftHand  0.0618886 -0.0890518 -1.31679
RightShoulder  0.928514 2.01235 9.52768
RightArm  -46.5147 34.45 3.60287
RightForeArm  -15.8469 53.6293 16.5949
RightHand  -0.350554 5.83287 -3.95243
LeftUpLeg  -2.7676 1.09078 4.5901
LeftLeg  -2.60209 1.23539 -0.0132936
LeftFoot  2.01476 0.727551 -6.31363
LeftToes  4.78904e-008 1.4679e-008 1.35657e-009
331
root  -4.99429 40.9508 -1.07437 3.0481 -76.6264 0.333191
RightUpLeg  2.69244 -1.10958 0.485483
RightLeg  -7.58003 -35.3415 5.33883
RightFoot  0.899175 -0.075351 0.760138
RightToes  -3.11842e-008 1.75238e-005 3.56266e-009
Spine  -1.90303 -0.191901 -2.83714
Spine1  2.77015 0.206024 -0.912289
HEad  1.39103 -4.91671 5.80666
LeftShoulder1  1.26835 -3.30166 -11.4577
LeftArm  -43.4683 -36.0279 -10.4794
LeftForeArm  -2.00681 -60.1194 -20.4319
LeftHand  0.0954633 -2.30819 -1.25982
RightShoulder  0.863991 1.79709 8.92718
RightArm  -43.001 33.341 3.91396
RightForeArm  -3.75382 65.3773 26.7368
RightHand  -0.284473 6.378 -3.13697
LeftUpLeg  -2.42668 1.19764 4.62255
LeftLeg  -2.42879 1.04575 -0.0223283
LeftFoot  1.5902 0.692183 -6.19025
LeftToes  4.78904e-008 1.4679e-008 1.35657e-009
332
root  -5.21586 40.9406 -1.00419 2.59735 -76.5576 0.643677
RightUpLeg  3.14972 -1.22201 0.39717
RightLeg  -7.3886 -35.3734 5.17241
RightFoot  0.545155 -0.0998965 0.994069
RightToes  -3.11842e-008 1.75238e-005 3.56266e-009
Spine  -2.06099 -0.0518895 -3.29167
Spine1  1.38713 0.295955 -0.523157
HEad  1.62454 -5.38873 6.44311
LeftShoulder1  1.15481 -2.98518 -10.5396
LeftArm  -39.1952 -35.1609 -11.151
LeftForeArm  20.7942 -72.6453 -38.861
LeftHand  0.0817301 -3.14111 -0.889092
RightShoulder  0.913629 2.0462 9.10151
RightArm  -39.5023 31.5007 3.92181
RightForeArm  24.1043 75.9505 54.5905
RightHand  -0.360536 7.00939 -3.72517
LeftUpLeg  -2.0303 1.19268 4.50414
LeftLeg  -2.15606 0.948446 0.00723508
LeftFoot  1.12435 0.651505 -6.02506
LeftToes  4.78904e-008 1.4679e-008 1.35657e-009
333
root  -5.42257 40.9389 -0.919742 2.49323 -76.5772 0.575073
RightUpLeg  3.72916 -1.27425 0.372597
RightLeg  -7.45226 -35.297 5.14346
RightFoot  0.39138 -0.127885 1.27128
RightToes  -3.11842e-008 1.75238e-005 3.56266e-009
Spine  -2.63697 0.114346 -3.77875
Spine1  0.961721 0.360615 0.270371
HEad  1.44536 -5.72332 6.8723
LeftShoulder1  1.24034 -3.33073 -10.9285
LeftArm  -35.3041 -33.6828 -11.3906
LeftForeArm  82.3425 -78.9714 -97.5422
LeftHand  -0.060148 -4.09377 0.989338
RightShoulder  0.977656 2.33351 9.42597
RightArm  -35.8935 29.7923 4.14397
RightForeArm  87.4119 77.2134 116.793
RightHand  -0.495298 8.49153 -4.4961
LeftUpLeg  -1.52202 1.35619 4.50653
LeftLeg  -2.07959 0.80188 -0.0934162
LeftFoot  0.868949 0.594191 -5.60285
LeftToes  4.78904e-008 1.4679e-008 1.35657e-009
